<?xml version="1.0" encoding="utf-8"?>
<!-- Generator: Adobe Illustrator 25.2.1, SVG Export Plug-In . SVG Version: 6.00 Build 0)  -->
<svg version="1.1" id="Layer_1" xmlns="http://www.w3.org/2000/svg" xmlns:xlink="http://www.w3.org/1999/xlink" x="0px" y="0px"
	 viewBox="0 0 371.3 90.7" style="enable-background:new 0 0 371.3 90.7;" xml:space="preserve">
<style type="text/css">
	.st0{fill:#FFFFFF;}
	.st1{fill:#231F20;}
	.st2{fill:none;}
</style>
<g>
	<path class="st0" d="M41.4,57.4V46.2c0-0.9,0.7-1.7,1.7-1.7h11.3c0.9,0,1.7,0.7,1.7,1.7v11.3c0,0.9-0.7,1.7-1.7,1.7H43
		C42.1,59.1,41.4,58.4,41.4,57.4 M65.9,32.3H43.4l-0.2,0c-0.6,0-1-0.2-1.3-0.5c-0.5-0.5-0.5-1.2-0.5-1.4V7.7l0-0.1
		c-0.1-0.6-0.6-1.9-2.6-2.1l-7.1,0c-2,0.3-2.5,1.8-2.5,2.5l0,20.1l0,0v2.2c0,0.2,0,0.9-0.5,1.4c-0.2,0.2-0.6,0.5-1.4,0.5L5,32.3
		l-0.2,0C4,32.3,3.4,32.5,3,33c-0.7,0.7-0.6,1.8-0.6,1.8v34c0,0.1,0,1.1,0.7,1.8c0.5,0.5,1.1,0.7,1.9,0.7h6.9c0.9,0,2.4-0.3,2.7-2.3
		l0-22.9c0-0.9,0.7-1.7,1.7-1.7h11.3c0.9,0,1.7,0.7,1.7,1.7l0,22.8c0.3,2,2.1,2.4,2.5,2.4h34.4v-0.1c1.5-0.3,2.1-1.4,2.2-2.4V34.7
		C68.3,33.2,67.4,32.3,65.9,32.3"/>
	<path class="st1" d="M29.6,68.7V46c0-1.2-1-2.2-2.2-2.2H16.2c-1.2,0-2.2,1-2.2,2.2v22.7c0,0.4-0.2,1.8-2.1,1.8H5
		c-2.1,0-2.1-1.9-2.1-1.9V34.7c0,0-0.2-1.9,1.8-1.9l0.3,0h19.3h0.2h2.6l0.2,0c0.9,0,1.5-0.4,1.8-0.7c0.6-0.7,0.6-1.5,0.6-1.8v-2.1
		l0,0l0-19.1V7.9c0,0,0-1.7,2-1.9h7.1c1.5,0.2,1.9,1.2,2,1.7v19.5v1.5v1.5c0,0.3,0,1.1,0.6,1.8c0.3,0.3,0.8,0.7,1.8,0.7l0.2,0H45
		h1.1h19.4h0.2c0.6,0,1.8,0.2,1.8,1.9v34.1c0,0.4-0.3,1.7-2,1.8l0.5,0H31.5C31.5,70.6,29.9,70.4,29.6,68.7 M76.6,44.5L76.6,44.5
		L68,32.2c-0.6-0.6-1.4-0.9-2.4-0.9h-0.2H50.7V20.1V20l0-0.2c-0.2-0.8-0.6-1.5-1.1-2L41.1,5.5l0,0c-0.6-0.5-1.3-0.9-2.2-1l-0.1,0
		h-0.1h-7.1h-0.1l-0.1,0c-2.6,0.3-3.3,2.3-3.3,3.3V9l0,20c0,0.4-0.1,1.1-0.6,1.6c-0.3,0.3-0.9,0.7-1.8,0.7l-0.2,0h-2.8H5h0h0l-0.2,0
		c-1.2,0-2,0.5-2.4,1c-0.8,0.9-0.9,2.1-0.8,2.5v33.9c0,0.2,0,1.5,1,2.4l13.2,7.4h0c0,0,0.2,0.1,0.2,0.1c0.7,0.4,1.9,1,3.3,1h-0.8
		h6.9c2,0,3.4-1.2,3.7-3.3l0-0.1v-0.1v-5.5c0.1,0.2,0.3,0.4,0.5,0.5l0,0l13.2,7.5l0,0c0.8,0.7,1.7,1,2.3,1l29.6,0v0
		c2.2-0.3,3.1-1.9,3.2-3.3l0-0.1v-0.1v-29C77.7,46,77.3,45.1,76.6,44.5"/>
	<path class="st0" d="M41.2,57.3V46c0-0.9,0.7-1.7,1.7-1.7h11.2c0.9,0,1.7,0.7,1.7,1.7v11.2c0,0.9-0.7,1.7-1.7,1.7H42.9
		C42,58.9,41.2,58.2,41.2,57.3 M65.6,32.2l-22.4,0l-0.2,0c-0.6,0-1-0.2-1.3-0.5c-0.5-0.5-0.5-1.2-0.5-1.4V7.6l0-0.1
		c-0.1-0.6-0.6-1.9-2.5-2.1l-7.1,0c-2,0.3-2.5,1.7-2.5,2.5l0,20.1l0,0v2.2c0,0.2,0,0.9-0.5,1.4c-0.2,0.2-0.6,0.5-1.4,0.5l-22.3,0
		l-0.2,0c-0.8,0-1.4,0.2-1.8,0.7c-0.7,0.7-0.6,1.8-0.6,1.8v33.9c0,0.1,0,1.1,0.7,1.8c0.5,0.5,1.1,0.7,1.9,0.7h6.9
		c0.9,0,2.4-0.3,2.7-2.3l0-22.8c0-0.9,0.7-1.7,1.7-1.7h11.2c0.9,0,1.7,0.7,1.7,1.7l0,22.7c0.3,2,2.1,2.4,2.5,2.4h34.4v-0.1
		c1.5-0.3,2.1-1.3,2.2-2.3V34.6C68.1,33.1,67.2,32.2,65.6,32.2"/>
	<path class="st1" d="M42.9,59.5h11.2c1.2,0,2.2-1,2.2-2.2V46c0-1.2-1-2.2-2.2-2.2H42.9c-1.2,0-2.2,1-2.2,2.2v11.2
		C40.6,58.5,41.6,59.5,42.9,59.5"/>
	<g>
		<rect x="234.9" y="38.4" class="st0" width="9" height="41.2"/>
		<g>
			<path class="st2" d="M365.5,70.2c-0.8,0-1.5,0.3-2,1c-0.6,0.7-1,1.7-1,3c0,2,1.1,3.6,2.8,3.6h2.5l-0.1-5
				C367.7,71.1,367,70.2,365.5,70.2z"/>
			<path class="st2" d="M263.4,68.4c-0.7,0-1.4,0.3-1.8,1c-0.6,0.7-0.8,1.7-0.8,3c0,0.7,0.1,1.2,0.2,1.5c0.2,0.5,0.7,0.8,1.4,0.8
				h3.8l0-4.4C265.5,69,264.6,68.4,263.4,68.4z"/>
			<rect x="331.5" y="56" class="st0" width="3.6" height="3.5"/>
			<path class="st0" d="M361.7,49.5c0-2.1,0-7.1-0.1-11.1h-4.2c0,3.8,0.1,8.7,0.1,10.1c0,1-0.6,1.4-1.5,1.4h-3v0h-6.3h-0.5h-6.3v0
				h-2.3c-0.7,0-2.1-0.8-2.1-2.7c0-1.6,0-3.4-0.1-5h-4.2l0.1,6.1c0,1-1.1,1.5-1.9,1.5h-3v0H320h-0.5h-6.3v0h-2.6
				c-1-4.1-3.7-7.6-8.6-7.6c-3.4,0-5.2,1.5-5.7,2.1l1.6,3c0,0,1.3-1.3,4-1.3c2.1,0,3.9,1.5,4.7,3.9h-12.6v0h-6.3h-0.5h-5.8h-0.5
				h-6.3v0h-2.3c-0.7,0-2.1-0.8-2.1-2.6l-0.1-5h-4.2l0.1,8.8c0,3.4-4,5.5-7.1,5.8c1.3,1.4,1.6,1.8,2.8,3.2c4.4-0.4,7.5-3.1,8.3-7
				c0.5,0.4,1.2,0.7,2,0.7h3.1v0h5.8h0.5h5.8h0.5h5.8v0h20.1v0h5.8h0.5h5.8v0c1.7,0,3,0,4.7,0c1.4,0,2.9-0.6,3.7-1.8
				c0.5,0.7,1.5,1.8,3.1,1.8h3.1v0h5.8h0.5h5.8v0h4.7C360.1,53.6,361.7,52,361.7,49.5z"/>
			<polygon class="st0" points="369.9,53.6 369.8,38.4 365.6,38.4 365.7,53.6 			"/>
			<path class="st0" d="M280.7,68.9c0.1,4.5,0.1,6.8,0.1,6.9c0,1.3-0.9,2-2,2h-3.3v0h-3v0h-3c-0.8,0-1.2-0.5-1.2-1.5V67h-2v1.5h-0.1
				c-0.6-0.9-1.9-1.7-3.3-1.7c-1.1,0-2,0.4-2.8,1.2c-1,1-1.5,2.4-1.5,4.3c0,2.8,1.1,4.2,3.4,4.2h4.4c0,2.2,1,3.3,3.1,3.3h3v0h3v0
				h3.3c2.6,0,4-1.5,4-3.9c0,0,0-2.3-0.1-7H280.7z M262.4,74.6c-0.7,0-1.2-0.3-1.4-0.8c-0.1-0.3-0.2-0.8-0.2-1.5
				c0-1.3,0.3-2.3,0.8-3c0.5-0.7,1.1-1,1.8-1c1.2,0,2.1,0.6,2.8,1.8l0,4.4H262.4z"/>
			<path class="st0" d="M276.8,66.5h5.4v-1h-1.2c-0.7,0-1.4-0.6-1.4-1.5c0-1,0.3-1.5,1-1.5c0.4,0,0.7,0.2,1,0.5l0.5-0.7
				c-0.4-0.5-0.9-0.8-1.5-0.8c-1.3,0-2.2,1.1-2.2,2.4c0,0.6,0.2,1.2,0.6,1.6h-1.5L276.8,66.5z"/>
			<path class="st0" d="M314.3,79.7c0-3.1-0.6-5.6-1.8-7.5c-1.4-2.2-3.5-3.3-6.4-3.3c-0.7,0-1.3,0.1-2,0.2l5.2-5l-1.4-1.3l-7.1,7.4
				c-0.1,0-0.1,0-0.1,0.1l0.9,1.7c1.4-0.8,2.7-1.2,4.1-1.2c1.8,0,3.3,0.7,4.5,2c1.2,1.3,1.9,3,2,5.2H299v0h-3h-0.5h-3.1v0h-2.2
				c-0.9-0.1-1.4-0.8-1.4-1.9l-0.1-11.5h-2l0.1,11.8c0,1.1,0.4,2,1,2.6c0.6,0.6,1.3,0.9,2.1,0.9h2.5v0h3.1h0.5h3v0H314.3z"/>
			<rect x="348.2" y="64.2" class="st0" width="2.2" height="2.3"/>
			<rect x="346.4" y="61" class="st0" width="2.2" height="2.3"/>
			<rect x="344.6" y="64.2" class="st0" width="2.2" height="2.3"/>
			<path class="st0" d="M354.1,68.9c0.1,4.3,0.1,6.8,0.1,7.3c0,1.3-0.9,2-2.1,2c-1.1,0-1.9-0.3-2.6-0.8c-0.7-0.6-1-1.4-1.1-2.5
				c0-2.3,0-4.1,0-5.2h-2c0.1,3.7,0.1,5.8,0.1,6.5c0,1.3-0.9,2-2,2c-2.3,0-3.4-1.1-3.5-3.3v-5.2h-2c0,1.4,0,2.5,0,3.4v4.6h-4.7v0
				h-3.1h-0.5h-2.8c0,0,0,0,0,0h-2.9c-0.6,0-1.1-0.3-1.6-0.8c-0.6-0.6-0.9-1.3-0.9-2.2l0-5.9h-2l0,8.4c0,2-0.6,3.6-1.8,5
				c-1.2,1.4-2.8,2-4.7,2c0.4,0.9,0.7,1.5,0.9,1.8c2.2-0.2,3.9-1,5.3-2.5c1.4-1.5,2.2-3.4,2.3-5.7c0.7,1.2,1.6,1.8,2.8,1.8h2.6
				c0,0,0,0,0,0h2.8h0.5h3.1v0h6.7v-1.3c0.4,0.6,0.8,1,1.3,1.2c0.6,0.3,1.4,0.4,2.3,0.4c1.9,0,3.2-0.8,3.7-2.3
				c0.4,0.9,1,1.5,1.6,1.9c0.6,0.3,1.4,0.5,2.4,0.5c2.3,0,3.9-1.6,3.9-3.9c0-0.2,0-2.6-0.1-7.3H354.1z"/>
			<path class="st0" d="M365.3,68.9c-1.2,0-2.3,0.4-3.2,1.2c-1.2,1-1.8,2.5-1.8,4.4c0,1.5,0.4,2.7,1.2,3.8c0.9,1,2,1.5,3.3,1.5h2.7
				c-0.4,1.4-1.2,2.5-2.3,3.3c-1.1,0.9-2.4,1.3-3.9,1.3l0.9,1.9c2.3-0.2,4.2-1.2,5.6-2.8c1.4-1.7,2.1-3.8,2.1-6.4v-3.4
				C369.9,70.4,368.3,68.9,365.3,68.9z M365.3,77.8c-1.8,0-2.8-1.6-2.8-3.6c0-1.3,0.4-2.3,1-3c0.6-0.7,1.2-1,2-1
				c1.5,0,2.3,0.9,2.3,2.6l0.1,5H365.3z"/>
		</g>
		<g>
			<path class="st2" d="M95.9,73.9c-0.4,0.5-0.6,1.1-0.6,1.7c0,0.4,0.1,0.8,0.2,1.1c0.1,0.3,0.3,0.6,0.6,0.9
				c0.3,0.2,0.6,0.4,0.9,0.6c0.4,0.1,0.8,0.2,1.2,0.2c0.7,0,1.3-0.2,1.9-0.5c0.6-0.3,1.1-0.8,1.7-1.4L98,72.5
				C97.1,72.9,96.4,73.3,95.9,73.9z"/>
			<polygon class="st2" points="99.5,48.6 103.7,48.6 101.6,43.5 			"/>
			<path class="st2" d="M149,71.7c0.3-0.3,0.6-0.6,0.8-0.9c0.2-0.4,0.3-0.8,0.3-1.2c0-0.9-0.3-1.6-1-2.1c-0.6-0.5-1.5-0.7-2.7-0.7
				H142v5.8h4.4c0.5,0,1-0.1,1.5-0.2C148.3,72.2,148.7,72,149,71.7z"/>
			<path class="st2" d="M121.6,67.5c-0.7-0.5-1.6-0.8-2.8-0.8h-3.6V73h3.5c0.6,0,1.1-0.1,1.6-0.2c0.5-0.1,0.9-0.4,1.2-0.6
				c0.3-0.3,0.6-0.6,0.8-1c0.2-0.4,0.3-0.8,0.3-1.3C122.6,68.8,122.3,68,121.6,67.5z"/>
			<path class="st2" d="M97.5,69.6c0.1,0.2,0.3,0.4,0.4,0.7c0.2,0.2,0.4,0.5,0.7,0.8c0.9-0.3,1.6-0.7,2.1-1.1c0.5-0.4,0.7-1,0.7-1.6
				c0-0.6-0.2-1.1-0.6-1.4c-0.4-0.4-0.9-0.6-1.4-0.6c-0.7,0-1.2,0.2-1.6,0.6c-0.4,0.4-0.6,0.9-0.6,1.5c0,0.2,0,0.4,0.1,0.6
				C97.4,69.2,97.4,69.4,97.5,69.6z"/>
			<polygon class="st2" points="127.8,74.3 134.3,74.3 131,67 			"/>
			<polygon class="st2" points="193.5,43.5 191.4,48.6 195.6,48.6 			"/>
			<path class="st2" d="M143.9,45.5c0.5-0.3,0.7-0.7,0.7-1.3v0c0-0.5-0.2-0.9-0.6-1.2c-0.4-0.3-1-0.4-1.7-0.4h-3.4v3.3h3.2
				C142.8,45.9,143.4,45.7,143.9,45.5z"/>
			<polygon class="st2" points="158.7,43.5 156.6,48.6 160.7,48.6 			"/>
			<path class="st2" d="M144.8,51.8c0.4-0.3,0.6-0.7,0.6-1.3v0c0-0.5-0.2-0.9-0.6-1.2c-0.4-0.3-1.1-0.5-2-0.5h-4v3.5h4.1
				C143.7,52.2,144.3,52.1,144.8,51.8z"/>
			<path class="st2" d="M203.6,71.7c0.3-0.3,0.6-0.6,0.8-0.9c0.2-0.4,0.3-0.8,0.3-1.2c0-0.9-0.3-1.6-1-2.1c-0.6-0.5-1.5-0.7-2.7-0.7
				h-4.4v5.8h4.4c0.5,0,1-0.1,1.5-0.2C202.9,72.2,203.3,72,203.6,71.7z"/>
			<path class="st2" d="M213.2,46.5c0.5-0.4,0.7-0.9,0.7-1.6v0c0-0.7-0.2-1.3-0.7-1.7c-0.5-0.4-1.1-0.6-2-0.6h-3.4v4.5h3.5
				C212.1,47.1,212.8,46.9,213.2,46.5z"/>
			<path class="st0" d="M100,39.4l-6.7,15.8h3.5l1.4-3.5h6.7l1.4,3.5h3.6l-6.7-15.8H100z M99.5,48.6l2.1-5.1l2.1,5.1H99.5z"/>
			<polygon class="st0" points="123.7,52.1 115.9,52.1 115.9,39.5 112.4,39.5 112.4,55.2 123.7,55.2 			"/>
			<rect x="125.6" y="46.6" class="st0" width="6.9" height="3.3"/>
			<path class="st0" d="M145.4,55c0.7-0.2,1.3-0.4,1.9-0.8c0.5-0.4,0.9-0.8,1.2-1.3c0.3-0.5,0.4-1.2,0.4-1.9v0c0-1-0.3-1.9-0.8-2.5
				c-0.5-0.6-1.2-1.1-2.1-1.4c0.3-0.1,0.5-0.3,0.8-0.5c0.2-0.2,0.5-0.5,0.6-0.7c0.2-0.3,0.3-0.6,0.4-0.9c0.1-0.3,0.2-0.7,0.2-1.2v0
				c0-1.2-0.5-2.2-1.4-3c-0.9-0.7-2.2-1.1-3.8-1.1h-7.3v15.7h7.5C143.8,55.2,144.6,55.1,145.4,55z M138.9,42.5h3.4
				c0.7,0,1.3,0.1,1.7,0.4c0.4,0.3,0.6,0.7,0.6,1.2v0c0,0.6-0.2,1-0.7,1.3c-0.4,0.3-1.1,0.4-1.8,0.4h-3.2V42.5z M138.9,48.7h4
				c0.9,0,1.5,0.2,2,0.5c0.4,0.3,0.6,0.7,0.6,1.2v0c0,0.6-0.2,1-0.6,1.3c-0.4,0.3-1,0.4-1.8,0.4h-4.1V48.7z"/>
			<path class="st0" d="M155.3,51.7h6.7l1.4,3.5h3.6l-6.7-15.8h-3.2l-6.7,15.8h3.5L155.3,51.7z M158.7,43.5l2.1,5.1h-4.2L158.7,43.5
				z"/>
			<polygon class="st0" points="182.8,55.2 182.8,39.5 179.3,39.5 179.3,45.7 172.9,45.7 172.9,39.5 169.5,39.5 169.5,55.2 
				172.9,55.2 172.9,48.9 179.3,48.9 179.3,55.2 			"/>
			<path class="st0" d="M190.2,51.7h6.7l1.4,3.5h3.6l-6.7-15.8h-3.2l-6.7,15.8h3.5L190.2,51.7z M193.5,43.5l2.1,5.1h-4.2L193.5,43.5
				z"/>
			<path class="st0" d="M213.9,55.2h4l-3.8-5.6c1-0.4,1.8-1,2.4-1.8c0.6-0.8,0.9-1.8,0.9-3.1v0c0-1.6-0.5-2.9-1.6-3.8
				c-1-0.9-2.5-1.4-4.4-1.4h-7.2v15.7h3.5v-5h2.7L213.9,55.2z M207.8,42.6h3.4c0.9,0,1.5,0.2,2,0.6c0.5,0.4,0.7,0.9,0.7,1.7v0
				c0,0.7-0.2,1.2-0.7,1.6c-0.5,0.4-1.1,0.6-2,0.6h-3.5V42.6z"/>
			<path class="st0" d="M104.9,74.6c0.3-0.6,0.7-1.2,1-1.9l-1.3-0.6c-0.3,0.6-0.5,1.2-0.8,1.7c-0.3,0.5-0.6,1-0.9,1.5l-3.3-3.3
				c1-0.4,1.9-0.8,2.5-1.4c0.6-0.6,0.9-1.4,0.9-2.3c0-0.4-0.1-0.9-0.3-1.3c-0.2-0.4-0.4-0.7-0.7-1c-0.3-0.3-0.7-0.5-1.1-0.7
				c-0.4-0.2-0.9-0.3-1.4-0.3c-0.6,0-1.1,0.1-1.5,0.3c-0.5,0.2-0.9,0.4-1.2,0.7c-0.3,0.3-0.6,0.7-0.8,1.1c-0.2,0.4-0.3,0.9-0.3,1.3
				c0,0.6,0.1,1.1,0.3,1.6c0.2,0.5,0.6,1,1.1,1.6c-1.1,0.4-1.9,1-2.5,1.7c-0.6,0.7-0.9,1.5-0.9,2.5c0,0.6,0.1,1.1,0.3,1.6
				c0.2,0.5,0.5,0.9,0.9,1.3c0.4,0.4,0.9,0.6,1.4,0.8c0.5,0.2,1.1,0.3,1.8,0.3c0.9,0,1.8-0.2,2.5-0.6c0.8-0.4,1.5-0.9,2.1-1.6
				l2.2,2.3l1.2-0.9l-2.5-2.5C104.2,75.8,104.5,75.2,104.9,74.6z M97.8,66.9c0.4-0.4,0.9-0.6,1.6-0.6c0.6,0,1.1,0.2,1.4,0.6
				c0.4,0.4,0.6,0.8,0.6,1.4c0,0.6-0.2,1.2-0.7,1.6c-0.5,0.4-1.1,0.8-2.1,1.1c-0.3-0.3-0.5-0.5-0.7-0.8c-0.2-0.2-0.3-0.5-0.4-0.7
				c-0.1-0.2-0.2-0.4-0.2-0.6c0-0.2-0.1-0.4-0.1-0.6C97.2,67.8,97.4,67.3,97.8,66.9z M100.2,77.8c-0.6,0.3-1.2,0.5-1.9,0.5
				c-0.4,0-0.8-0.1-1.2-0.2c-0.4-0.1-0.7-0.3-0.9-0.6c-0.3-0.2-0.5-0.5-0.6-0.9c-0.1-0.3-0.2-0.7-0.2-1.1c0-0.6,0.2-1.2,0.6-1.7
				c0.4-0.5,1.1-1,2.1-1.3l3.8,3.9C101.3,77,100.7,77.5,100.2,77.8z"/>
			<path class="st0" d="M123.9,67.9c-0.3-0.6-0.6-1-1.1-1.4c-0.5-0.4-1-0.7-1.7-0.9c-0.7-0.2-1.4-0.3-2.2-0.3h-5.3v14.2h1.6v-5h3.5
				c0.8,0,1.5-0.1,2.2-0.3c0.7-0.2,1.3-0.5,1.8-0.9c0.5-0.4,0.9-0.9,1.2-1.5c0.3-0.6,0.4-1.3,0.4-2
				C124.3,69.1,124.1,68.4,123.9,67.9z M122.4,71.1c-0.2,0.4-0.4,0.7-0.8,1c-0.3,0.3-0.8,0.5-1.2,0.6c-0.5,0.1-1,0.2-1.6,0.2h-3.5
				v-6.3h3.6c1.2,0,2.1,0.3,2.8,0.8c0.7,0.5,1.1,1.3,1.1,2.3C122.6,70.3,122.6,70.7,122.4,71.1z"/>
			<path class="st0" d="M130.3,65.1l-6.5,14.3h1.6l1.7-3.8h7.7l1.7,3.8h1.7l-6.5-14.3H130.3z M127.8,74.3L131,67l3.2,7.3H127.8z"/>
			<path class="st0" d="M149.3,73.2c0.5-0.2,0.9-0.5,1.2-0.9c0.3-0.3,0.6-0.8,0.8-1.2c0.2-0.5,0.3-1,0.3-1.6c0-0.6-0.1-1.2-0.4-1.7
				c-0.2-0.5-0.6-1-1-1.3c-0.4-0.4-1-0.7-1.6-0.9c-0.6-0.2-1.3-0.3-2.1-0.3h-6.1v14.2h1.6v-5.5h4.1l4.1,5.5h2l-4.4-5.8
				C148.4,73.6,148.9,73.4,149.3,73.2z M142,72.5v-5.8h4.4c1.2,0,2,0.2,2.7,0.7c0.6,0.5,1,1.2,1,2.1c0,0.5-0.1,0.9-0.3,1.2
				c-0.2,0.4-0.4,0.7-0.8,0.9c-0.3,0.3-0.7,0.4-1.2,0.6c-0.4,0.1-0.9,0.2-1.5,0.2H142z"/>
			<polygon class="st0" points="153.2,66.7 158,66.7 158,79.5 159.6,79.5 159.6,66.7 164.4,66.7 164.4,65.2 153.2,65.2 			"/>
			<polygon class="st0" points="177.2,76.6 168.2,65.2 166.7,65.2 166.7,79.5 168.3,79.5 168.3,67.8 177.5,79.5 178.7,79.5 
				178.7,65.2 177.2,65.2 			"/>
			<polygon class="st0" points="183.7,73 191.4,73 191.4,71.6 183.7,71.6 183.7,66.7 192.3,66.7 192.3,65.2 182.1,65.2 182.1,79.5 
				192.4,79.5 192.4,78 183.7,78 			"/>
			<path class="st0" d="M203.9,73.2c0.5-0.2,0.9-0.5,1.2-0.9c0.3-0.3,0.6-0.8,0.8-1.2c0.2-0.5,0.3-1,0.3-1.6c0-0.6-0.1-1.2-0.4-1.7
				c-0.2-0.5-0.6-1-1-1.3c-0.4-0.4-1-0.7-1.6-0.9c-0.6-0.2-1.3-0.3-2.1-0.3H195v14.2h1.6v-5.5h4.1l4.1,5.5h2l-4.4-5.8
				C202.9,73.6,203.4,73.4,203.9,73.2z M196.6,72.5v-5.8h4.4c1.2,0,2,0.2,2.7,0.7c0.6,0.5,1,1.2,1,2.1c0,0.5-0.1,0.9-0.3,1.2
				c-0.2,0.4-0.4,0.7-0.8,0.9c-0.3,0.3-0.7,0.4-1.2,0.6c-0.5,0.1-0.9,0.2-1.5,0.2H196.6z"/>
			<path class="st0" d="M217.6,73c-0.8-0.6-1.9-1.1-3.5-1.5c-0.8-0.2-1.4-0.3-1.9-0.5c-0.5-0.2-0.9-0.4-1.2-0.6
				c-0.3-0.2-0.5-0.5-0.6-0.7c-0.1-0.3-0.2-0.6-0.2-0.9c0-0.3,0.1-0.6,0.2-0.9c0.1-0.3,0.3-0.5,0.6-0.7c0.3-0.2,0.6-0.4,1-0.5
				c0.4-0.1,0.8-0.2,1.3-0.2c0.7,0,1.4,0.1,2.1,0.4c0.7,0.2,1.3,0.6,2,1.2l0.9-1.2c-0.7-0.6-1.5-1-2.3-1.3c-0.8-0.3-1.7-0.4-2.7-0.4
				c-0.7,0-1.3,0.1-1.9,0.3c-0.6,0.2-1.1,0.5-1.5,0.8c-0.4,0.3-0.7,0.8-1,1.2c-0.2,0.5-0.3,1-0.3,1.6c0,0.6,0.1,1.1,0.3,1.5
				c0.2,0.4,0.5,0.8,0.9,1.1c0.4,0.3,0.9,0.6,1.5,0.8c0.6,0.2,1.3,0.4,2.1,0.6c0.7,0.2,1.4,0.3,1.8,0.5c0.5,0.2,0.9,0.4,1.1,0.6
				c0.3,0.2,0.5,0.5,0.6,0.7c0.1,0.3,0.2,0.6,0.2,0.9c0,0.7-0.3,1.3-0.9,1.8c-0.6,0.4-1.3,0.7-2.3,0.7c-1,0-1.9-0.2-2.6-0.5
				c-0.8-0.3-1.5-0.8-2.3-1.5l-1,1.2c0.9,0.8,1.8,1.3,2.7,1.7c0.9,0.4,2,0.6,3.1,0.6c0.7,0,1.4-0.1,2-0.3c0.6-0.2,1.1-0.5,1.5-0.8
				c0.4-0.4,0.8-0.8,1-1.3c0.2-0.5,0.4-1.1,0.4-1.7C218.7,74.5,218.3,73.7,217.6,73z"/>
		</g>
	</g>
</g>
</svg>
