<?xml version="1.0" encoding="utf-8"?>
<!-- Generator: Adobe Illustrator 25.2.1, SVG Export Plug-In . SVG Version: 6.00 Build 0)  -->
<svg version="1.1" id="Layer_1" xmlns="http://www.w3.org/2000/svg" xmlns:xlink="http://www.w3.org/1999/xlink" x="0px" y="0px"
	 viewBox="0 0 55 55" style="enable-background:new 0 0 55 55;" xml:space="preserve">
<style type="text/css">
	.st0{fill:#FFFFFF;}
	.st1{fill:#231F20;}
</style>
<g>
	<path class="st0" d="M28.8,38.3v-7.9c0-0.6,0.5-1.2,1.2-1.2H38c0.6,0,1.2,0.5,1.2,1.2v7.9c0,0.6-0.5,1.2-1.2,1.2H30
		C29.4,39.5,28.8,39,28.8,38.3 M46.1,20.6H30.3l-0.1,0c-0.4,0-0.7-0.1-0.9-0.4c-0.3-0.4-0.3-0.8-0.3-1v-16l0-0.1
		c-0.1-0.4-0.4-1.3-1.8-1.5l-5,0c-1.4,0.2-1.8,1.2-1.8,1.8l0,14.2l0,0v1.6c0,0.1,0,0.6-0.3,1c-0.2,0.2-0.4,0.4-1,0.4l-15.8,0l-0.2,0
		c-0.5,0-1,0.2-1.3,0.5c-0.5,0.5-0.4,1.2-0.4,1.3v24c0,0.1,0,0.8,0.5,1.3c0.3,0.3,0.8,0.5,1.4,0.5h4.9c0.6,0,1.7-0.2,1.9-1.6l0-16.1
		c0-0.6,0.5-1.2,1.2-1.2h7.9c0.6,0,1.2,0.5,1.2,1.2l0,16.1c0.2,1.4,1.5,1.7,1.7,1.7h24.3v0c1-0.2,1.5-1,1.5-1.7V22.3
		C47.8,21.2,47.2,20.6,46.1,20.6"/>
	<path class="st1" d="M20.6,46.3v-16c0-0.9-0.7-1.6-1.6-1.6h-7.9c-0.9,0-1.6,0.7-1.6,1.6v16c0,0.3-0.1,1.3-1.5,1.3H3.2
		c-1.5,0-1.5-1.4-1.5-1.4V22.3c0,0-0.1-1.4,1.3-1.4l0.2,0h13.6h0.1h1.8l0.1,0c0.6,0,1-0.3,1.2-0.5c0.4-0.5,0.4-1.1,0.4-1.3v-1.5l0,0
		l0-13.5V3.4c0,0,0-1.2,1.4-1.4h5c1,0.1,1.3,0.8,1.4,1.2V17v1.1v1.1c0,0.2,0,0.8,0.4,1.3c0.2,0.2,0.6,0.5,1.2,0.5l0.1,0h1.2h0.7
		h13.6h0.1c0.4,0,1.3,0.1,1.3,1.3v24c0,0.2-0.2,1.2-1.4,1.3l0.3,0H21.9C21.9,47.6,20.7,47.5,20.6,46.3 M53.7,29.2L53.7,29.2l-6-8.6
		c-0.4-0.4-1-0.6-1.7-0.6h-0.1H35.4v-7.9v-0.1l0-0.1c-0.1-0.6-0.4-1-0.8-1.4l-5.9-8.7l0,0c-0.4-0.4-0.9-0.6-1.5-0.7l-0.1,0H27h-5
		h-0.1l-0.1,0c-1.8,0.2-2.3,1.6-2.3,2.4v0.8l0,14.1c0,0.3-0.1,0.8-0.4,1.2c-0.2,0.2-0.6,0.5-1.2,0.5l-0.1,0h-2H3.2h0h0l-0.2,0
		c-0.9,0-1.4,0.4-1.7,0.7c-0.6,0.6-0.6,1.5-0.6,1.7v23.9c0,0.2,0,1,0.7,1.7l9.3,5.2h0c0,0,0.1,0.1,0.2,0.1c0.5,0.3,1.4,0.7,2.3,0.7
		h-0.6h4.8c1.4,0,2.4-0.9,2.6-2.3l0-0.1v-0.1v-3.9c0.1,0.1,0.2,0.3,0.3,0.4l0,0l9.3,5.3l0,0c0.5,0.5,1.2,0.7,1.6,0.7l20.9,0v0
		c1.5-0.2,2.2-1.4,2.2-2.3l0,0v0V31.1C54.4,30.3,54.1,29.6,53.7,29.2"/>
	<path class="st0" d="M28.7,38.2v-7.9c0-0.6,0.5-1.2,1.2-1.2h7.9c0.6,0,1.2,0.5,1.2,1.2v7.9c0,0.6-0.5,1.2-1.2,1.2h-7.9
		C29.2,39.4,28.7,38.9,28.7,38.2 M45.9,20.5l-15.8,0l-0.1,0c-0.4,0-0.7-0.1-0.9-0.4c-0.3-0.4-0.3-0.8-0.3-1V3.2l0-0.1
		c-0.1-0.4-0.4-1.3-1.8-1.5l-5,0c-1.4,0.2-1.8,1.2-1.8,1.8l0,14.1l0,0v1.6c0,0.1,0,0.6-0.3,1c-0.2,0.2-0.4,0.4-1,0.4l-15.7,0l-0.2,0
		c-0.5,0-1,0.2-1.3,0.5c-0.5,0.5-0.4,1.2-0.4,1.3v23.9c0,0.1,0,0.8,0.5,1.3C2.2,47.8,2.6,48,3.2,48H8c0.6,0,1.7-0.2,1.9-1.6l0-16.1
		c0-0.6,0.5-1.2,1.2-1.2H19c0.6,0,1.2,0.5,1.2,1.2l0,16c0.2,1.4,1.5,1.7,1.7,1.7h24.2v0c1-0.2,1.5-1,1.5-1.7v-24
		C47.6,21.2,47,20.5,45.9,20.5"/>
	<path class="st1" d="M29.9,39.8h7.9c0.9,0,1.6-0.7,1.6-1.6v-7.9c0-0.9-0.7-1.6-1.6-1.6h-7.9c-0.9,0-1.6,0.7-1.6,1.6v7.9
		C28.3,39.1,29,39.8,29.9,39.8"/>
</g>
</svg>
