<svg width="52" height="52" viewBox="0 0 52 52" fill="none" xmlns="http://www.w3.org/2000/svg">
<path d="M26.965 34.5088C26.7886 34.2442 26.6122 34.1119 26.4358 34.1119C26.2594 34.1119 26.0829 34.2442 25.9065 34.5088L16.1158 50.7802C15.8512 51.0448 15.4543 51.2212 14.9251 51.3094C14.4841 51.3094 13.9989 51.1771 13.4697 50.9125L7.11899 46.4147C6.23695 45.7974 6.14874 45.0477 6.85438 44.1658L18.4974 29.8787C18.762 29.6141 18.8502 29.3496 18.762 29.085C18.6738 28.8204 18.4092 28.644 17.9681 28.5558L1.69442 24.0581C0.724168 23.7935 0.459555 22.9998 0.900577 21.6769L3.4144 14.9302C3.85543 13.8719 4.51696 13.6073 5.399 14.1365L20.7466 20.6186C21.1876 20.795 21.4963 20.8391 21.6727 20.7509C21.9373 20.5745 22.0696 20.2658 22.0696 19.8248L20.7466 2.23056C20.6584 1.87779 20.7466 1.56912 21.0112 1.30454C21.2758 0.951775 21.6727 0.775391 22.202 0.775391H30.6696C31.1988 0.775391 31.5516 0.951775 31.728 1.30454C31.9926 1.56912 32.125 1.87779 32.125 2.23056L30.8019 19.9571C30.7137 20.7509 31.0224 21.0154 31.728 20.7509L47.6048 13.8719C48.6633 13.3427 49.3689 13.6955 49.7217 14.9302L51.8386 21.5446C52.1915 22.7793 51.8386 23.5289 50.7802 23.7935L34.9034 28.5558C34.5506 28.644 34.3301 28.8645 34.2419 29.2173C34.2419 29.4819 34.3742 29.7464 34.6388 30.011L45.7525 43.5044C46.1054 43.9453 46.2377 44.4304 46.1495 44.9595C46.0613 45.4005 45.6643 45.8855 44.9587 46.4147L39.4018 50.251C38.7844 50.692 38.2111 50.8684 37.6818 50.7802C37.1526 50.692 36.7557 50.5156 36.4911 50.251L26.965 34.5088Z" fill="#0075FF"/>
</svg>
